<svg width="2296" height="1405" viewBox="0 0 2296 1405" fill="none" xmlns="http://www.w3.org/2000/svg">
<path d="M718.17 742.261H11.6702C-22.6631 559.761 8.97025 213.061 410.17 286.261C718.17 -89.7391 877.67 12.7608 877.67 12.7608C877.67 12.7608 996.67 -15.2393 1163.17 286.261C1246.17 105.261 1439.17 124.261 1522.17 286.261C1537.17 258.928 1700.81 150.5 1726.81 184.5C1976.31 120.5 2149.67 385 2183.67 476C2434.47 769.2 2183.67 706.761 2183.67 706.761L718.17 742.261Z" fill="white"/>
<path d="M1517.38 687.327L2194.38 693.297C2225.74 868.466 2192.5 1200.42 1808.67 1126.89C1510.35 1484.58 1358.38 1385.01 1358.38 1385.01C1358.38 1385.01 1244.11 1410.84 1087.11 1120.52C1006.05 1293.26 821.271 1273.43 743.106 1117.49C728.502 1143.55 570.78 1246.07 546.153 1213.27C306.531 1272.49 142.645 1017.57 110.834 930.084C-127.015 647.009 112.784 708.96 112.784 708.96L1517.38 687.327Z" fill="white"/>
</svg>
