<svg width="1245" height="1436" viewBox="0 0 1245 1436" fill="none" xmlns="http://www.w3.org/2000/svg">
<ellipse cx="657.5" cy="702" rx="364.5" ry="357" fill="#FFA800"/>
<line x1="704.258" y1="279.207" x2="754.758" y2="0.614209" stroke="#FFA800"/>
<line x1="801.12" y1="309.536" x2="881.922" y2="38.1782" stroke="#FFA800"/>
<line x1="889.185" y1="406.368" x2="1015.92" y2="153.184" stroke="#FFA800"/>
<line x1="907.782" y1="495.919" x2="1177.92" y2="411.126" stroke="#FFA800"/>
<line x1="968.97" y1="765.447" x2="1244.8" y2="701.579" stroke="#FFA800"/>
<line x1="962.526" y1="961.325" x2="1168.16" y2="1155.95" stroke="#FFA800"/>
<line x1="971.045" y1="1327.2" x2="850.051" y2="1071.22" stroke="#FFA800"/>
<line x1="734.463" y1="1435.1" x2="729.5" y2="1152.01" stroke="#FFA800"/>
<line x1="484.89" y1="1376.77" x2="564.15" y2="1104.95" stroke="#FFA800"/>
<line x1="286.239" y1="1281.87" x2="406.856" y2="1025.71" stroke="#FFA800"/>
<line x1="141.518" y1="973.916" x2="402.091" y2="863.164" stroke="#FFA800"/>
<line x1="0.00767328" y1="660.5" x2="283.107" y2="664.845" stroke="#FFA800"/>
<line x1="287" y1="496.41" x2="86.6468" y2="296.354" stroke="#FFA800"/>
<line x1="396.971" y1="396.06" x2="271.552" y2="142.222" stroke="#FFA800"/>
<line x1="513.66" y1="433.749" x2="476.504" y2="153.065" stroke="#FFA800"/>
<line x1="622.203" y1="291.371" x2="577.117" y2="11.851" stroke="#FFA800"/>
</svg>
